<svg width="16" height="16" viewBox="0 0 16 16" fill="none" xmlns="http://www.w3.org/2000/svg">
<path d="M7.57661 4.30699C8.84761 4.59999 9.92361 3.52399 9.63061 2.25299C9.56119 1.95991 9.41164 1.6919 9.19867 1.47893C8.9857 1.26596 8.71769 1.11641 8.42461 1.04699C8.14137 0.979058 7.84544 0.984866 7.56507 1.06386C7.28471 1.14285 7.02928 1.2924 6.82317 1.49821C6.61705 1.70402 6.46714 1.95924 6.38773 2.23948C6.30833 2.51973 6.30209 2.81565 6.36961 3.09899C6.49961 3.68599 6.98961 4.17499 7.57561 4.30599L7.57661 4.30699ZM10.0216 5.64299C9.59761 5.51299 8.58761 5.38299 8.00061 5.38299C7.38061 5.38299 6.40361 5.54499 5.94661 5.67599C5.00161 5.93599 4.28461 6.75099 3.59961 9.94599H4.87061C5.36061 7.76199 5.81661 7.14299 6.11061 6.91399L6.66261 14.999H9.14061L9.89061 6.88199C10.1836 7.04499 10.6406 7.59899 11.1616 9.91399H12.4006C11.7156 6.75099 10.9986 5.93599 10.0206 5.64399L10.0216 5.64299Z" fill="#1F1F1F" fill-opacity="0.6"/>
</svg>
