<svg width="16" height="16" viewBox="0 0 16 16" fill="none" xmlns="http://www.w3.org/2000/svg">
<path d="M8 1C4.155 1 1 4.1 1 8C1 11.9 4.155 15 8 15C11.845 15 15 11.9 15 8C14.901 4.1 11.746 1 8 1ZM10.86 10.1C10.563 10.8 9.873 11.5 8.592 11.7V12.6H7.31V11.7C6.225 11.5 5.535 11.1 5.24 10.7L6.225 9.9C6.423 10.1 7.015 10.5 8.197 10.5C9.085 10.5 9.577 10.1 9.677 9.7C9.775 9.4 9.677 9.2 9.577 9C9.183 8.7 8.493 8.6 7.803 8.5C6.915 8.4 6.127 8.3 5.535 7.8C4.944 7.3 4.845 6.4 5.141 5.7C5.437 4.8 6.324 4.3 7.408 4.2V3.3H8.592V4.2C9.676 4.4 10.268 4.8 10.662 5.2L9.676 6C9.38 5.8 8.887 5.4 7.704 5.4C6.915 5.4 6.423 5.7 6.225 6.1C6.127 6.4 6.127 6.7 6.324 6.8C6.62 7.1 7.31 7.1 7.901 7.2C8.789 7.3 9.676 7.4 10.366 8C10.958 8.6 11.156 9.4 10.86 10.1Z" fill="#1F1F1F" fill-opacity="0.6"/>
</svg>
